#N canvas 417 102 1918 1062 10;
#X obj 70 44 netreceive 3000;
#X obj 154 99 route start size density overlap blend window pitch speed
record file source reset freeze;
#X obj 568 96 route start_alt size_alt density_alt overlap_alt blend_alt
window_alt pitch_alt record_alt file_alt source_alt freeze_alt;
#X obj 155 381 s start;
#X obj 187 341 s size;
#X obj 216 296 s density;
#X obj 245 259 s overlap;
#X obj 275 227 s blend;
#X obj 306 193 s window;
#X obj 336 172 s pitch;
#X obj 367 145 s speed;
#X obj 402 282 s record;
#X obj 428 260 s file;
#X obj 461 241 s source;
#X obj 488 203 s reset;
#X obj 519 166 s freeze;
#X obj 563 280 s start_alt;
#X obj 581 255 s size_alt;
#X obj 596 232 s density_alt;
#X obj 614 207 s overlap_alt;
#X obj 697 286 s blend_alt;
#X obj 723 261 s window_alt;
#X obj 740 240 s pitch_alt;
#X obj 927 287 s freeze_alt;
#X obj 804 287 s record_alt;
#X obj 822 262 s file_alt;
#X obj 840 240 s source_alt;
#X obj 1118 180 loadbang;
#X obj 1118 202 delay 300;
#X obj 1118 224 s initbang;
#X obj 1308 190 r initbang;
#X msg 1308 212 \; pd dsp 1;
#X text 38 19 Receive Controls via TCP;
#X text 297 59 primary controls;
#X text 596 56 secondary controls (accessible when source is held)
;
#X text 1140 155 Initialization -- Turn DSP on;
#X obj 254 446 vsl 15 128 0 1 0 1 empty empty mix 0 -9 0 10 -262144
-1 -1 5800 1;
#X obj 1260 489 tgl 15 1 empty empty freeze 17 7 0 10 -262144 -1 -1
0 1;
#X obj 1351 488 tgl 15 1 empty empty trig 17 7 0 10 -262144 -1 -1 0
1;
#X obj 367 446 vsl 15 128 0 1 0 1 empty empty position 0 -9 0 10 -262144
-1 -1 300 1;
#X obj 481 446 vsl 15 128 0 1 0 1 empty empty size 0 -9 0 10 -262144
-1 -1 5400 1;
#X obj 541 446 vsl 15 128 0 1 0 1 empty empty pitch 0 -9 0 10 -262144
-1 -1 6000 1;
#X obj 625 446 vsl 15 128 0 1 0 1 empty empty density 0 -9 0 10 -262144
-1 -1 2100 1;
#X obj 714 446 vsl 15 128 0 1 0 1 empty empty texture 0 -9 0 10 -262144
-1 -1 3800 1;
#X obj 800 446 vsl 15 128 0 1 0 1 empty empty spread 0 -9 0 10 -262144
-1 -1 2800 1;
#X obj 890 446 vsl 15 128 0 1 0 1 empty empty feedback 0 -9 0 10 -262144
-1 -1 2700 1;
#X obj 984 446 vsl 15 128 0 1 0 1 empty empty reverb 0 -9 0 10 -262144
-1 -1 6800 1;
#X obj 1595 498 tgl 15 1 empty empty bypass 17 7 0 10 -262144 -1 -1
0 1;
#X obj 1479 498 tgl 15 1 empty empty mono 17 7 0 10 -262144 -1 -1 0
1;
#X obj 1537 498 tgl 15 1 empty empty lofi 17 7 0 10 -262144 -1 -1 0
1;
#X msg 253 643 mix \$1;
#X msg 365 643 position \$1;
#X msg 471 643 size \$1;
#X msg 540 643 pitch \$1;
#X msg 623 643 density \$1;
#X msg 714 643 texture \$1;
#X msg 800 643 spread \$1;
#X obj 357 950 dac~;
#X msg 890 643 feedback \$1;
#X msg 984 643 reverb \$1;
#X msg 1103 643 mode \$1;
#X msg 1596 591 bypass \$1;
#X obj 198 689 adc~;
#X obj 497 826 vsl 15 128 0 1 0 1 empty empty vol 0 -9 0 10 -262144
-1 -1 12700 1;
#X obj 357 890 *~;
#X obj 382 890 *~;
#X obj 1103 446 vsl 15 128 0 3 0 1 empty empty mode 0 -9 0 10 -262144
-1 -1 0 1;
#X obj 368 602 r start;
#X obj 254 602 r blend;
#X obj 472 602 r size;
#X obj 565 552 r pitch;
#X obj 624 602 r density;
#X obj 1142 520 r speed;
#X obj 1260 425 r freeze;
#X obj 717 602 r overlap;
#X obj 354 820 clds~ 524288 262144;
#X msg 1259 643 freeze \$1;
#X msg 1350 643 trig \$1;
#X msg 1538 591 lofi \$1;
#X msg 1480 591 mono \$1;
#X obj 897 602 r overlap_alt;
#X obj 992 602 r density_alt;
#X obj 805 602 r size_alt;
#X msg 1672 591 silence \$1;
#X obj 1673 498 tgl 15 1 empty empty silence 17 7 0 10 -262144 -1 -1
0 1;
#X obj 1350 425 r reset;
#X obj 1142 541 * 3;
#X obj 1142 562 + 0.5;
#X obj 1142 583 int;
#X obj 565 573 - 0.6;
#X obj 1107 612 change -1;
#X obj 565 594 * 60;
#X obj 1106 708 print mode changed;
#X connect 0 0 1 0;
#X connect 1 0 3 0;
#X connect 1 1 4 0;
#X connect 1 2 5 0;
#X connect 1 3 6 0;
#X connect 1 4 7 0;
#X connect 1 5 8 0;
#X connect 1 6 9 0;
#X connect 1 7 10 0;
#X connect 1 8 11 0;
#X connect 1 9 12 0;
#X connect 1 10 13 0;
#X connect 1 11 14 0;
#X connect 1 12 15 0;
#X connect 1 13 2 0;
#X connect 2 0 16 0;
#X connect 2 1 17 0;
#X connect 2 2 18 0;
#X connect 2 3 19 0;
#X connect 2 4 20 0;
#X connect 2 5 21 0;
#X connect 2 6 22 0;
#X connect 2 7 24 0;
#X connect 2 8 25 0;
#X connect 2 9 26 0;
#X connect 2 10 23 0;
#X connect 27 0 28 0;
#X connect 28 0 29 0;
#X connect 30 0 31 0;
#X connect 36 0 50 0;
#X connect 37 0 76 0;
#X connect 38 0 77 0;
#X connect 39 0 51 0;
#X connect 40 0 52 0;
#X connect 41 0 53 0;
#X connect 42 0 54 0;
#X connect 43 0 55 0;
#X connect 44 0 56 0;
#X connect 45 0 58 0;
#X connect 46 0 59 0;
#X connect 47 0 61 0;
#X connect 48 0 79 0;
#X connect 49 0 78 0;
#X connect 50 0 75 0;
#X connect 51 0 75 0;
#X connect 52 0 75 0;
#X connect 53 0 75 0;
#X connect 54 0 75 0;
#X connect 55 0 75 0;
#X connect 56 0 75 0;
#X connect 58 0 75 0;
#X connect 59 0 75 0;
#X connect 60 0 75 0;
#X connect 60 0 92 0;
#X connect 62 0 75 0;
#X connect 62 1 75 1;
#X connect 63 0 64 1;
#X connect 63 0 65 1;
#X connect 64 0 57 0;
#X connect 65 0 57 1;
#X connect 66 0 90 0;
#X connect 67 0 51 0;
#X connect 68 0 50 0;
#X connect 69 0 52 0;
#X connect 70 0 89 0;
#X connect 71 0 54 0;
#X connect 72 0 86 0;
#X connect 73 0 37 0;
#X connect 74 0 55 0;
#X connect 75 0 64 0;
#X connect 75 1 65 0;
#X connect 76 0 75 0;
#X connect 77 0 75 0;
#X connect 80 0 58 0;
#X connect 81 0 59 0;
#X connect 82 0 56 0;
#X connect 84 0 83 0;
#X connect 85 0 38 0;
#X connect 86 0 87 0;
#X connect 87 0 88 0;
#X connect 88 0 90 0;
#X connect 89 0 91 0;
#X connect 90 0 60 0;
#X connect 91 0 53 0;
